<svg width="61" height="61" viewBox="0 0 61 61" fill="none" xmlns="http://www.w3.org/2000/svg">
<g id="info">
<path id="Vector" d="M31.1252 42.105C31.9025 42.105 32.6481 42.4138 33.1977 42.9635C33.7474 43.5132 34.0562 44.2587 34.0562 45.0361C34.0562 45.8134 33.7474 46.559 33.1977 47.1087C32.6481 47.6583 31.9025 47.9671 31.1252 47.9671C30.3478 47.9671 29.6023 47.6583 29.0526 47.1087C28.5029 46.559 28.1941 45.8134 28.1941 45.0361C28.1941 44.2587 28.5029 43.5132 29.0526 42.9635C29.6023 42.4138 30.3478 42.105 31.1252 42.105ZM31.1252 14.2598C33.5939 14.2598 35.9856 15.1196 37.8894 16.6914C39.7932 18.2632 41.0903 20.4488 41.5578 22.873C42.0252 25.2971 41.634 27.8083 40.4512 29.9753C39.2684 32.1424 37.368 33.8299 35.0762 34.748C34.7385 34.8762 34.4333 35.0773 34.1823 35.3371C34.0533 35.4837 34.0328 35.6713 34.0357 35.8647L34.0562 36.2428C34.0554 36.9899 33.7693 37.7085 33.2565 38.2517C32.7436 38.7949 32.0427 39.1218 31.2969 39.1656C30.5511 39.2094 29.8168 38.9668 29.2439 38.4873C28.671 38.0078 28.3028 37.3276 28.2146 36.5858L28.1941 36.2428V35.5101C28.1941 32.1305 30.92 30.1022 32.8955 29.3079C33.6996 28.9868 34.4009 28.4528 34.9244 27.7632C35.4478 27.0736 35.7735 26.2544 35.8665 25.3936C35.9594 24.5329 35.8162 23.663 35.4521 22.8775C35.088 22.0921 34.5168 21.4206 33.7999 20.9352C33.0829 20.4499 32.2473 20.169 31.3828 20.1227C30.5183 20.0764 29.6575 20.2665 28.8928 20.6726C28.1282 21.0786 27.4886 21.6853 27.0427 22.4274C26.5969 23.1696 26.3616 24.0191 26.3622 24.8849C26.3622 25.6623 26.0533 26.4078 25.5037 26.9575C24.954 27.5072 24.2084 27.816 23.4311 27.816C22.6537 27.816 21.9082 27.5072 21.3585 26.9575C20.8088 26.4078 20.5 25.6623 20.5 24.8849C20.5 22.067 21.6194 19.3644 23.612 17.3718C25.6046 15.3792 28.3072 14.2598 31.1252 14.2598Z" fill="#F2F4F6"/>
</g>
</svg>
